<mxfile host="app.diagrams.net" modified="2020-08-31T07:09:34.008Z" agent="5.0 (Macintosh; Intel Mac OS X 10_15_3) AppleWebKit/537.36 (KHTML, like Gecko) Chrome/84.0.4147.125 Safari/537.36" etag="bchfyTuuuUsT4zjdGR-v" version="13.6.5" type="github">
  <diagram id="9ABL0qRy423FGokd6cNj" name="Page-1">
    <mxGraphModel dx="1188" dy="643" grid="1" gridSize="10" guides="1" tooltips="1" connect="1" arrows="1" fold="1" page="1" pageScale="1" pageWidth="1200" pageHeight="1920" math="0" shadow="0">
      <root>
        <mxCell id="0" />
        <mxCell id="1" parent="0" />
        <mxCell id="JDs3lJHwxxUJXOkBthPV-22" value="" style="rounded=0;whiteSpace=wrap;html=1;fillColor=#d5e8d4;dashed=1;strokeColor=#82b366;" vertex="1" parent="1">
          <mxGeometry x="300" y="260" width="120" height="215.5" as="geometry" />
        </mxCell>
        <mxCell id="JDs3lJHwxxUJXOkBthPV-9" value="" style="group;fillColor=#f5f5f5;strokeColor=#666666;fontColor=#333333;container=0;" vertex="1" connectable="0" parent="1">
          <mxGeometry x="150" y="260" width="120" height="215" as="geometry" />
        </mxCell>
        <mxCell id="JDs3lJHwxxUJXOkBthPV-3" value="" style="rounded=0;whiteSpace=wrap;html=1;fillColor=none;dashed=1;" vertex="1" parent="1">
          <mxGeometry x="150" y="260" width="120" height="214.99999999999997" as="geometry" />
        </mxCell>
        <mxCell id="JDs3lJHwxxUJXOkBthPV-47" value="" style="rounded=1;whiteSpace=wrap;html=1;fillColor=none;strokeWidth=2;strokeColor=#FF3333;dashed=1;dashPattern=1 1;" vertex="1" parent="1">
          <mxGeometry x="140" y="272.5" width="290" height="57.5" as="geometry" />
        </mxCell>
        <mxCell id="JDs3lJHwxxUJXOkBthPV-45" value="" style="rounded=0;whiteSpace=wrap;html=1;fillColor=#f9f7ed;dashed=1;strokeColor=#36393d;" vertex="1" parent="1">
          <mxGeometry x="530" y="265" width="50" height="290" as="geometry" />
        </mxCell>
        <mxCell id="JDs3lJHwxxUJXOkBthPV-12" value="&lt;font style=&quot;font-size: 18px&quot;&gt;结果处理&lt;/font&gt;" style="rounded=1;whiteSpace=wrap;html=1;" vertex="1" parent="1">
          <mxGeometry x="310" y="280" width="100" height="40" as="geometry" />
        </mxCell>
        <mxCell id="JDs3lJHwxxUJXOkBthPV-4" value="Core" style="text;html=1;fillColor=#f5f5f5;align=center;verticalAlign=middle;whiteSpace=wrap;rounded=0;fontColor=#333333;strokeColor=#000000;" vertex="1" parent="1">
          <mxGeometry x="105" y="455" width="40" height="20" as="geometry" />
        </mxCell>
        <mxCell id="JDs3lJHwxxUJXOkBthPV-15" value="&lt;font style=&quot;font-size: 18px&quot;&gt;结果提供&lt;/font&gt;" style="rounded=1;whiteSpace=wrap;html=1;" vertex="1" parent="1">
          <mxGeometry x="310" y="350" width="100" height="40" as="geometry" />
        </mxCell>
        <mxCell id="JDs3lJHwxxUJXOkBthPV-20" value="&lt;font style=&quot;font-size: 15px&quot;&gt;1. 数据&lt;br&gt;2. 结果&lt;br&gt;3. 资源&lt;/font&gt;" style="text;html=1;strokeColor=#d6b656;fillColor=#fff2cc;align=center;verticalAlign=middle;whiteSpace=wrap;rounded=0;" vertex="1" parent="1">
          <mxGeometry x="60" y="260" width="70" height="70" as="geometry" />
        </mxCell>
        <mxCell id="JDs3lJHwxxUJXOkBthPV-26" value="接口提供" style="rounded=1;whiteSpace=wrap;html=1;fillColor=none;" vertex="1" parent="1">
          <mxGeometry x="460" y="266.5" width="30" height="289" as="geometry" />
        </mxCell>
        <mxCell id="JDs3lJHwxxUJXOkBthPV-28" value="" style="group" vertex="1" connectable="0" parent="1">
          <mxGeometry x="150" y="495" width="270" height="60" as="geometry" />
        </mxCell>
        <mxCell id="JDs3lJHwxxUJXOkBthPV-27" value="" style="rounded=0;whiteSpace=wrap;html=1;fillColor=#dae8fc;dashed=1;strokeColor=#6c8ebf;" vertex="1" parent="JDs3lJHwxxUJXOkBthPV-28">
          <mxGeometry width="270" height="60" as="geometry" />
        </mxCell>
        <mxCell id="JDs3lJHwxxUJXOkBthPV-17" value="&lt;span style=&quot;font-size: 18px&quot;&gt;资源获取&lt;/span&gt;" style="rounded=1;whiteSpace=wrap;html=1;" vertex="1" parent="JDs3lJHwxxUJXOkBthPV-28">
          <mxGeometry x="10" y="10" width="100" height="40" as="geometry" />
        </mxCell>
        <mxCell id="JDs3lJHwxxUJXOkBthPV-18" value="&lt;span style=&quot;font-size: 18px&quot;&gt;资源管理&lt;/span&gt;" style="rounded=1;whiteSpace=wrap;html=1;" vertex="1" parent="JDs3lJHwxxUJXOkBthPV-28">
          <mxGeometry x="160" y="10" width="100" height="40" as="geometry" />
        </mxCell>
        <mxCell id="JDs3lJHwxxUJXOkBthPV-29" value="界面" style="rounded=1;whiteSpace=wrap;html=1;fillColor=none;" vertex="1" parent="1">
          <mxGeometry x="540" y="275" width="30" height="120" as="geometry" />
        </mxCell>
        <mxCell id="JDs3lJHwxxUJXOkBthPV-30" value="对外用户" style="rounded=1;whiteSpace=wrap;html=1;fillColor=none;" vertex="1" parent="1">
          <mxGeometry x="540" y="406" width="30" height="69" as="geometry" />
        </mxCell>
        <mxCell id="JDs3lJHwxxUJXOkBthPV-31" value="Yarn、HDFS、Es" style="shape=cube;whiteSpace=wrap;html=1;boundedLbl=1;backgroundOutline=1;darkOpacity=0.05;darkOpacity2=0.1;fillColor=none;" vertex="1" parent="1">
          <mxGeometry x="165" y="585" width="110" height="60" as="geometry" />
        </mxCell>
        <mxCell id="JDs3lJHwxxUJXOkBthPV-32" value="Mysql" style="shape=cube;whiteSpace=wrap;html=1;boundedLbl=1;backgroundOutline=1;darkOpacity=0.05;darkOpacity2=0.1;fillColor=none;" vertex="1" parent="1">
          <mxGeometry x="305" y="585" width="110" height="60" as="geometry" />
        </mxCell>
        <mxCell id="JDs3lJHwxxUJXOkBthPV-33" value="其他" style="rounded=1;whiteSpace=wrap;html=1;fillColor=none;" vertex="1" parent="1">
          <mxGeometry x="540" y="486" width="30" height="49" as="geometry" />
        </mxCell>
        <mxCell id="JDs3lJHwxxUJXOkBthPV-34" value="" style="endArrow=classic;html=1;exitX=0;exitY=0;exitDx=45;exitDy=0;exitPerimeter=0;" edge="1" parent="1" source="JDs3lJHwxxUJXOkBthPV-31">
          <mxGeometry width="50" height="50" relative="1" as="geometry">
            <mxPoint x="470" y="635" as="sourcePoint" />
            <mxPoint x="210" y="555" as="targetPoint" />
          </mxGeometry>
        </mxCell>
        <mxCell id="JDs3lJHwxxUJXOkBthPV-35" value="" style="endArrow=classic;html=1;" edge="1" parent="1">
          <mxGeometry width="50" height="50" relative="1" as="geometry">
            <mxPoint x="207" y="495" as="sourcePoint" />
            <mxPoint x="207" y="474" as="targetPoint" />
          </mxGeometry>
        </mxCell>
        <mxCell id="JDs3lJHwxxUJXOkBthPV-36" value="" style="endArrow=classic;html=1;exitX=1.004;exitY=0.137;exitDx=0;exitDy=0;exitPerimeter=0;entryX=-0.009;entryY=0.137;entryDx=0;entryDy=0;entryPerimeter=0;" edge="1" parent="1" source="JDs3lJHwxxUJXOkBthPV-3" target="JDs3lJHwxxUJXOkBthPV-22">
          <mxGeometry width="50" height="50" relative="1" as="geometry">
            <mxPoint x="310" y="255" as="sourcePoint" />
            <mxPoint x="300" y="294" as="targetPoint" />
          </mxGeometry>
        </mxCell>
        <mxCell id="JDs3lJHwxxUJXOkBthPV-37" value="" style="endArrow=classic;html=1;exitX=0.5;exitY=1;exitDx=0;exitDy=0;entryX=0.779;entryY=-0.003;entryDx=0;entryDy=0;entryPerimeter=0;" edge="1" parent="1" source="JDs3lJHwxxUJXOkBthPV-22" target="JDs3lJHwxxUJXOkBthPV-27">
          <mxGeometry width="50" height="50" relative="1" as="geometry">
            <mxPoint x="290" y="396.63300000000004" as="sourcePoint" />
            <mxPoint x="319.52" y="396" as="targetPoint" />
          </mxGeometry>
        </mxCell>
        <mxCell id="JDs3lJHwxxUJXOkBthPV-39" value="" style="endArrow=classic;html=1;exitX=0.785;exitY=1.01;exitDx=0;exitDy=0;entryX=0.522;entryY=0.002;entryDx=0;entryDy=0;entryPerimeter=0;exitPerimeter=0;" edge="1" parent="1" source="JDs3lJHwxxUJXOkBthPV-27" target="JDs3lJHwxxUJXOkBthPV-32">
          <mxGeometry width="50" height="50" relative="1" as="geometry">
            <mxPoint x="370" y="485.5000000000001" as="sourcePoint" />
            <mxPoint x="370.33000000000015" y="504.82000000000005" as="targetPoint" />
          </mxGeometry>
        </mxCell>
        <mxCell id="JDs3lJHwxxUJXOkBthPV-13" value="&lt;font style=&quot;font-size: 18px&quot;&gt;结果存储&lt;/font&gt;" style="rounded=1;whiteSpace=wrap;html=1;" vertex="1" parent="1">
          <mxGeometry x="310" y="420" width="100" height="45" as="geometry" />
        </mxCell>
        <mxCell id="JDs3lJHwxxUJXOkBthPV-42" value="" style="endArrow=classic;html=1;exitX=0.5;exitY=1;exitDx=0;exitDy=0;dashed=1;" edge="1" parent="1" source="JDs3lJHwxxUJXOkBthPV-12" target="JDs3lJHwxxUJXOkBthPV-15">
          <mxGeometry width="50" height="50" relative="1" as="geometry">
            <mxPoint x="390" y="355" as="sourcePoint" />
            <mxPoint x="390" y="335" as="targetPoint" />
          </mxGeometry>
        </mxCell>
        <mxCell id="JDs3lJHwxxUJXOkBthPV-43" value="" style="endArrow=classic;html=1;exitX=0.5;exitY=1;exitDx=0;exitDy=0;dashed=1;entryX=0.5;entryY=0;entryDx=0;entryDy=0;" edge="1" parent="1" source="JDs3lJHwxxUJXOkBthPV-15" target="JDs3lJHwxxUJXOkBthPV-13">
          <mxGeometry width="50" height="50" relative="1" as="geometry">
            <mxPoint x="390" y="400.5" as="sourcePoint" />
            <mxPoint x="390" y="420.5" as="targetPoint" />
          </mxGeometry>
        </mxCell>
        <mxCell id="JDs3lJHwxxUJXOkBthPV-44" value="" style="shape=flexArrow;endArrow=classic;html=1;entryX=-0.053;entryY=0.373;entryDx=0;entryDy=0;entryPerimeter=0;" edge="1" parent="1">
          <mxGeometry width="50" height="50" relative="1" as="geometry">
            <mxPoint x="427" y="407" as="sourcePoint" />
            <mxPoint x="455.4100000000001" y="406.297" as="targetPoint" />
          </mxGeometry>
        </mxCell>
        <mxCell id="JDs3lJHwxxUJXOkBthPV-46" value="" style="shape=flexArrow;endArrow=classic;html=1;entryX=-0.053;entryY=0.373;entryDx=0;entryDy=0;entryPerimeter=0;" edge="1" parent="1">
          <mxGeometry width="50" height="50" relative="1" as="geometry">
            <mxPoint x="497" y="406.7" as="sourcePoint" />
            <mxPoint x="525.4100000000001" y="405.9969999999999" as="targetPoint" />
          </mxGeometry>
        </mxCell>
        <mxCell id="JDs3lJHwxxUJXOkBthPV-1" value="&lt;font style=&quot;font-size: 18px&quot;&gt;数据采集&lt;/font&gt;" style="rounded=1;whiteSpace=wrap;html=1;" vertex="1" parent="1">
          <mxGeometry x="160" y="420" width="100" height="44.71" as="geometry" />
        </mxCell>
        <mxCell id="JDs3lJHwxxUJXOkBthPV-2" value="&lt;font style=&quot;font-size: 18px&quot;&gt;数据分析&lt;/font&gt;" style="rounded=1;whiteSpace=wrap;html=1;" vertex="1" parent="1">
          <mxGeometry x="160" y="280" width="100" height="40.69" as="geometry" />
        </mxCell>
        <mxCell id="JDs3lJHwxxUJXOkBthPV-6" value="&lt;font style=&quot;font-size: 18px&quot;&gt;数据封装&lt;/font&gt;" style="rounded=1;whiteSpace=wrap;html=1;" vertex="1" parent="1">
          <mxGeometry x="160" y="350" width="100" height="42.7" as="geometry" />
        </mxCell>
        <mxCell id="JDs3lJHwxxUJXOkBthPV-40" value="" style="endArrow=classic;html=1;exitX=0.5;exitY=0;exitDx=0;exitDy=0;entryX=0.5;entryY=1;entryDx=0;entryDy=0;dashed=1;" edge="1" parent="1" source="JDs3lJHwxxUJXOkBthPV-1" target="JDs3lJHwxxUJXOkBthPV-6">
          <mxGeometry width="50" height="50" relative="1" as="geometry">
            <mxPoint x="200" y="454.42583732057415" as="sourcePoint" />
            <mxPoint x="250" y="402.99043062200957" as="targetPoint" />
          </mxGeometry>
        </mxCell>
        <mxCell id="JDs3lJHwxxUJXOkBthPV-41" value="" style="endArrow=classic;html=1;exitX=0.5;exitY=0;exitDx=0;exitDy=0;entryX=0.5;entryY=1;entryDx=0;entryDy=0;dashed=1;" edge="1" parent="1" source="JDs3lJHwxxUJXOkBthPV-6" target="JDs3lJHwxxUJXOkBthPV-2">
          <mxGeometry width="50" height="50" relative="1" as="geometry">
            <mxPoint x="220" y="423.56459330143537" as="sourcePoint" />
            <mxPoint x="220" y="402.99043062200957" as="targetPoint" />
          </mxGeometry>
        </mxCell>
        <mxCell id="JDs3lJHwxxUJXOkBthPV-48" value="&lt;font style=&quot;font-size: 20px&quot;&gt;业务逻辑&lt;/font&gt;" style="text;html=1;strokeColor=#d6b656;fillColor=#fff2cc;align=center;verticalAlign=middle;whiteSpace=wrap;rounded=0;" vertex="1" parent="1">
          <mxGeometry x="60" y="210" width="90" height="40" as="geometry" />
        </mxCell>
      </root>
    </mxGraphModel>
  </diagram>
</mxfile>
